<?xml version="1.0" standalone="no"?>
<!DOCTYPE svg PUBLIC "-//W3C//DTD SVG 20010904//EN"
 "http://www.w3.org/TR/2001/REC-SVG-20010904/DTD/svg10.dtd">
<svg version="1.0" xmlns="http://www.w3.org/2000/svg"
 width="189.000000pt" height="128.000000pt" viewBox="0 0 189.000000 128.000000"
 preserveAspectRatio="xMidYMid meet">

<g transform="translate(0.000000,128.000000) scale(0.100000,-0.100000)"
fill="#000000" stroke="none">
<path d="M338 1241 c-19 -50 -231 -647 -269 -760 -30 -88 -36 -117 -26 -123 6
-4 44 -8 84 -8 l71 0 27 80 27 80 180 -2 180 -3 27 -75 27 -75 79 -3 c43 -2
81 1 86 5 6 6 -301 887 -313 898 -2 1 -41 5 -86 7 -83 5 -84 4 -94 -21z m156
-393 c30 -86 52 -159 49 -162 -9 -9 -223 -7 -223 2 0 11 97 299 105 312 4 6 9
10 11 8 2 -2 28 -74 58 -160z"/>
<path d="M1590 1185 l0 -85 50 0 50 0 0 -375 0 -376 88 3 87 3 0 455 0 455
-137 3 -138 3 0 -86z"/>
<path d="M966 1238 c-15 -69 -58 -439 -53 -452 4 -9 36 -30 71 -48 l66 -32 27
26 c33 32 92 58 130 58 34 0 86 -31 108 -63 26 -40 30 -92 10 -143 -15 -39
-25 -49 -63 -66 -68 -31 -113 -21 -173 38 l-48 47 -77 -46 -77 -45 48 -51 c84
-90 210 -132 329 -110 111 20 175 70 222 173 23 52 26 67 22 140 -5 97 -26
143 -91 203 -73 67 -193 91 -287 58 -23 -8 -44 -15 -46 -15 -7 0 -4 37 7 115
l11 75 189 0 189 0 0 80 0 80 -255 0 -255 0 -4 -22z"/>
</g>
</svg>
